<svg width="128" height="128" viewBox="0 0 128 128" fill="none" xmlns="http://www.w3.org/2000/svg">
<path d="M0 16C0 7.16344 7.16344 0 16 0H112C120.837 0 128 7.16344 128 16V112C128 120.837 120.837 128 112 128H16C7.16344 128 0 120.837 0 112V16Z" fill="white"/>
<path d="M0 16C0 7.16344 7.16344 0 16 0H112C120.837 0 128 7.16344 128 16V112C128 120.837 120.837 128 112 128H16C7.16344 128 0 120.837 0 112V16Z" fill="url(#paint0_linear_178_888)"/>
<path fill-rule="evenodd" clip-rule="evenodd" d="M92.75 13.625V86.2856H35.25V13.625V12.3099H35.3981C36.8691 5.81699 49.1132 0.75 64 0.75C78.8868 0.75 91.1309 5.81699 92.6019 12.3099H92.75V13.625Z" fill="url(#paint1_linear_178_888)" fill-opacity="0.5"/>
<g filter="url(#filter0_di_178_888)">
<ellipse cx="64" cy="84.25" rx="28.75" ry="15.25" fill="url(#paint2_radial_178_888)"/>
</g>
<g filter="url(#filter1_di_178_888)">
<ellipse cx="64" cy="44.75" rx="28.75" ry="15.5" fill="#47F5D2" fill-opacity="0.2" shape-rendering="crispEdges"/>
</g>
<g filter="url(#filter2_di_178_888)">
<ellipse cx="64" cy="63.875" rx="28.75" ry="14.625" fill="#47F5D2" fill-opacity="0.7" shape-rendering="crispEdges"/>
</g>
<rect x="80.25" y="80.75" width="33" height="33" rx="16.5" fill="url(#paint3_linear_178_888)"/>
<path d="M105.673 98.1873L97.263 106.683C96.9935 106.939 96.5622 106.939 96.3061 106.683L87.8289 98.2143C87.5593 97.9448 87.5593 97.5137 87.8154 97.2577C87.9367 97.123 88.1119 97.0557 88.2871 97.0557H93.3815C93.5567 97.0557 93.7185 96.894 93.7185 96.7189V88.2986C93.7185 87.9214 94.015 87.625 94.3923 87.625H99.0959C99.4598 87.625 99.7698 87.9214 99.7698 88.2986V96.7189C99.7698 96.894 99.918 97.0557 100.107 97.0557H105.201C105.565 97.0422 105.875 97.3386 105.875 97.7158C105.875 97.8909 105.794 98.0661 105.673 98.1873Z" fill="#161923"/>
<rect x="80.25" y="80.75" width="33" height="33" rx="16.5" stroke="#1E212D"/>
<defs>
<filter id="filter0_di_178_888" x="34.25" y="68" width="59.5" height="33.5" filterUnits="userSpaceOnUse" color-interpolation-filters="sRGB">
<feFlood flood-opacity="0" result="BackgroundImageFix"/>
<feColorMatrix in="SourceAlpha" type="matrix" values="0 0 0 0 0 0 0 0 0 0 0 0 0 0 0 0 0 0 127 0" result="hardAlpha"/>
<feOffset dy="1"/>
<feGaussianBlur stdDeviation="0.5"/>
<feComposite in2="hardAlpha" operator="out"/>
<feColorMatrix type="matrix" values="0 0 0 0 0 0 0 0 0 0 0 0 0 0 0 0 0 0 0.25 0"/>
<feBlend mode="normal" in2="BackgroundImageFix" result="effect1_dropShadow_178_888"/>
<feBlend mode="normal" in="SourceGraphic" in2="effect1_dropShadow_178_888" result="shape"/>
<feColorMatrix in="SourceAlpha" type="matrix" values="0 0 0 0 0 0 0 0 0 0 0 0 0 0 0 0 0 0 127 0" result="hardAlpha"/>
<feOffset dy="-1"/>
<feGaussianBlur stdDeviation="0.5"/>
<feComposite in2="hardAlpha" operator="arithmetic" k2="-1" k3="1"/>
<feColorMatrix type="matrix" values="0 0 0 0 0.1625 0 0 0 0 1 0 0 0 0 0.899149 0 0 0 1 0"/>
<feBlend mode="normal" in2="shape" result="effect2_innerShadow_178_888"/>
</filter>
<filter id="filter1_di_178_888" x="34.25" y="28.25" width="59.5" height="34" filterUnits="userSpaceOnUse" color-interpolation-filters="sRGB">
<feFlood flood-opacity="0" result="BackgroundImageFix"/>
<feColorMatrix in="SourceAlpha" type="matrix" values="0 0 0 0 0 0 0 0 0 0 0 0 0 0 0 0 0 0 127 0" result="hardAlpha"/>
<feOffset dy="1"/>
<feGaussianBlur stdDeviation="0.5"/>
<feComposite in2="hardAlpha" operator="out"/>
<feColorMatrix type="matrix" values="0 0 0 0 0 0 0 0 0 0 0 0 0 0 0 0 0 0 0.25 0"/>
<feBlend mode="normal" in2="BackgroundImageFix" result="effect1_dropShadow_178_888"/>
<feBlend mode="normal" in="SourceGraphic" in2="effect1_dropShadow_178_888" result="shape"/>
<feColorMatrix in="SourceAlpha" type="matrix" values="0 0 0 0 0 0 0 0 0 0 0 0 0 0 0 0 0 0 127 0" result="hardAlpha"/>
<feOffset dy="-1"/>
<feGaussianBlur stdDeviation="0.5"/>
<feComposite in2="hardAlpha" operator="arithmetic" k2="-1" k3="1"/>
<feColorMatrix type="matrix" values="0 0 0 0 0.829167 0 0 0 0 0.9795 0 0 0 0 1 0 0 0 1 0"/>
<feBlend mode="normal" in2="shape" result="effect2_innerShadow_178_888"/>
</filter>
<filter id="filter2_di_178_888" x="34.25" y="48.25" width="59.5" height="32.25" filterUnits="userSpaceOnUse" color-interpolation-filters="sRGB">
<feFlood flood-opacity="0" result="BackgroundImageFix"/>
<feColorMatrix in="SourceAlpha" type="matrix" values="0 0 0 0 0 0 0 0 0 0 0 0 0 0 0 0 0 0 127 0" result="hardAlpha"/>
<feOffset dy="1"/>
<feGaussianBlur stdDeviation="0.5"/>
<feComposite in2="hardAlpha" operator="out"/>
<feColorMatrix type="matrix" values="0 0 0 0 0 0 0 0 0 0 0 0 0 0 0 0 0 0 0.25 0"/>
<feBlend mode="normal" in2="BackgroundImageFix" result="effect1_dropShadow_178_888"/>
<feBlend mode="normal" in="SourceGraphic" in2="effect1_dropShadow_178_888" result="shape"/>
<feColorMatrix in="SourceAlpha" type="matrix" values="0 0 0 0 0 0 0 0 0 0 0 0 0 0 0 0 0 0 127 0" result="hardAlpha"/>
<feOffset dy="-1"/>
<feGaussianBlur stdDeviation="0.5"/>
<feComposite in2="hardAlpha" operator="arithmetic" k2="-1" k3="1"/>
<feColorMatrix type="matrix" values="0 0 0 0 0.829167 0 0 0 0 0.9795 0 0 0 0 1 0 0 0 1 0"/>
<feBlend mode="normal" in2="shape" result="effect2_innerShadow_178_888"/>
</filter>
<linearGradient id="paint0_linear_178_888" x1="64" y1="0" x2="64" y2="128" gradientUnits="userSpaceOnUse">
<stop stop-color="#333849"/>
<stop offset="1" stop-color="#0B0D14"/>
</linearGradient>
<linearGradient id="paint1_linear_178_888" x1="64" y1="13.375" x2="64" y2="86.2439" gradientUnits="userSpaceOnUse">
<stop stop-color="#6D94E6" stop-opacity="0"/>
<stop offset="1" stop-color="#2CFFD4"/>
</linearGradient>
<radialGradient id="paint2_radial_178_888" cx="0" cy="0" r="1" gradientUnits="userSpaceOnUse" gradientTransform="translate(64 102.5) rotate(-90) scale(33.5 48.75)">
<stop stop-color="#A64EFF"/>
<stop offset="0.701493" stop-color="#22E1C9"/>
</radialGradient>
<linearGradient id="paint3_linear_178_888" x1="84.2229" y1="87.2035" x2="111.51" y2="111.017" gradientUnits="userSpaceOnUse">
<stop stop-color="white" stop-opacity="0.7"/>
<stop offset="1" stop-color="white"/>
</linearGradient>
</defs>
</svg>
