<svg width="17" height="16" viewBox="0 0 17 16" fill="none" xmlns="http://www.w3.org/2000/svg">
<path d="M16.4887 13.8741L9.63462 0.789156C9.25343 0.0707647 8.36644 -0.207795 7.65538 0.166061C7.38415 0.298011 7.17156 0.517927 7.03228 0.781826L0.178238 13.8668H0.170908C-0.21028 14.5779 0.0682805 15.4649 0.786672 15.8387C0.991927 15.9487 1.2265 16 1.46108 16H15.1618C15.9682 16 16.6279 15.3403 16.6279 14.5339C16.6279 14.292 16.5693 14.0574 16.4593 13.8522L16.4887 13.8741ZM7.60406 5.3876C7.60406 4.97709 7.92661 4.65454 8.33712 4.65454C8.74029 4.65454 9.07017 4.97709 9.07017 5.3876V9.78591C9.07017 10.1891 8.74029 10.519 8.33712 10.519C7.92661 10.519 7.60406 10.1891 7.60406 9.78591V5.3876ZM8.37377 13.825H8.35178C7.75067 13.8177 7.2522 13.3412 7.23021 12.7474C7.20821 12.1463 7.67004 11.6479 8.27114 11.6259C8.27114 11.6185 8.27847 11.6185 8.2858 11.6185H8.30046C8.89423 11.6185 9.39271 12.0877 9.4147 12.6888C9.43669 13.2826 8.96754 13.7811 8.37377 13.8104C8.35911 13.8104 8.35178 13.8104 8.34445 13.8104L8.37377 13.825Z" fill="#FFB900"/>
</svg>
